# xmcd
#
# Track frame offsets:
#	150
#	15655
#	33732
#	49000
#	63865
#	77532
#	90826
#	106865
#	119180
#	138283
#	153275
#	166721
#	181903
#	197729
#	214670
#	227678
#
# Disc length: 3236 seconds
#
# Revision: 1
# Processed by: cddbd v1.4PL0 Copyright (c) Steve Scherf et al.
# Submitted via: audiograbber 1.81.02
#
DISCID=c30ca210
DTITLE=Jimmy Melton - Greatest Holds
DYEAR=2003
DGENRE=Country
TTITLE0=That's What Fools Do
TTITLE1=Forgiven
TTITLE2=I Just Wanna Be Me
TTITLE3=Mama's House
TTITLE4=I'm Not That Different From You
TTITLE5=Nothin' Here But You
TTITLE6=Just One Lie
TTITLE7=Poindexter Did
TTITLE8=Honeysuckle
TTITLE9=You Can't Say That On The Radio
TTITLE10=I Used To Be Like That
TTITLE11=What Are The Chances
TTITLE12=Worn Out Shoes
TTITLE13=It's Just Me
TTITLE14=Thank God For Friends
TTITLE15=She Was
EXTD=
EXTT0=
EXTT1=
EXTT2=
EXTT3=
EXTT4=
EXTT5=
EXTT6=
EXTT7=
EXTT8=
EXTT9=
EXTT10=
EXTT11=
EXTT12=
EXTT13=
EXTT14=
EXTT15=
PLAYORDER=
